<svg width="160" height="24" viewBox="0 0 160 24" fill="none" xmlns="http://www.w3.org/2000/svg">
<path d="M0 20.7977L1.00194 20.6657C1.66917 20.5662 1.83762 20.4017 1.83762 19.6423V4.58927L0.0656294 4.48974V1.58386H16.5211V6.93042L12.883 7.19439V5.80745C12.883 5.17997 12.6818 4.88354 12.0145 4.88354H6.60888V10.9268H14.8191V14.3931H6.60888V20.5337L9.17936 20.6657V23.537H0V20.7977Z" fill="white"/>
<path d="M24.7378 13.1381V20.6636L27.5074 20.7956V23.5348H18.2624V20.9297L19.33 20.8302C20.03 20.7306 20.1307 20.4991 20.1307 19.7397V10.5958C20.1307 9.93584 19.9294 9.70432 19.3628 9.67187L18.2274 9.57234V6.80061H24.3353V9.34298H24.4031C24.9369 8.02311 26.372 6.37219 29.1416 6.37219C30.1085 6.37219 31.3117 6.53664 32.213 6.9326V12.8742L28.4415 13.1381V10.9593C28.4415 10.4313 28.3737 10.2669 28.1418 10.1674C27.9427 10.1003 27.6759 10.0678 27.3083 10.0678C25.707 10.0678 24.7378 11.3899 24.7378 13.1381Z" fill="white"/>
<path d="M47.3516 11.1908C47.3516 15.912 43.1798 17.1323 37.9404 16.9679C38.1066 18.8828 39.1414 20.4666 41.7119 20.4666C43.5801 20.4666 44.9824 19.7742 45.9165 19.1468L47.251 22.282C46.8178 22.546 44.547 23.9978 41.1102 23.9978C35.4027 23.9978 33.2325 20.3671 33.2325 15.6134C33.2325 10.5633 36.2034 6.37 41.6768 6.37C45.1486 6.37216 47.3516 7.88893 47.3516 11.1908ZM41.4428 9.70645C39.2398 9.70645 38.006 11.6863 37.9054 13.9322C41.2437 14.0642 43.2782 13.5038 43.2782 11.4223C43.2782 10.1998 42.5103 9.70645 41.4428 9.70645Z" fill="white"/>
<path d="M56.7016 9.50739C55.3671 9.50739 54.3652 10.0678 54.3652 11.2232C54.3652 12.7075 55.8003 12.9737 57.5701 13.5016C60.0071 14.2286 62.6433 14.9881 62.6433 18.4198C62.6433 21.9856 59.9065 24 55.6012 24C53.5645 24 50.9962 23.5716 49.6946 22.877V18.4868L53.0329 18.2229V19.7093C53.0329 20.2048 53.1336 20.4017 53.5339 20.5337C53.9671 20.6982 54.6693 20.8301 55.3365 20.8301C56.9051 20.8301 57.9398 20.3347 57.9398 18.9153C57.9398 17.4959 56.6382 17.167 54.7677 16.7364C52.3657 16.1089 49.828 15.3494 49.828 11.7836C49.828 8.25243 52.7988 6.37 56.8044 6.37C58.6399 6.37 60.6438 6.76596 62.1117 7.55788V11.6841L58.8083 11.9481V10.5936C58.8083 10.0656 58.7405 9.83411 58.3402 9.70213C57.837 9.53985 57.2354 9.50739 56.7016 9.50739Z" fill="white"/>
<path d="M75.5941 12.9412C75.5941 11.1259 75.1938 10.07 73.2905 10.07C71.5557 10.07 70.4203 11.4223 70.4203 13.2398V20.7003L71.9561 20.7999V23.5391H63.9449V20.9297L64.9468 20.8301C65.5813 20.7306 65.7825 20.5662 65.7825 19.7396V3.82979C65.7825 3.1374 65.6163 2.90588 64.9818 2.87342L63.8793 2.77389V0H70.3547V9.04436C71.4573 7.02993 73.3583 6.37 75.0953 6.37C78.8668 6.37 80.2691 8.51641 80.2691 11.9805V20.696L81.8705 20.7955V23.5348H73.7609V20.9297L74.7628 20.8301C75.3972 20.7306 75.5963 20.5662 75.5963 19.7396V12.9412H75.5941Z" fill="white"/>
<path d="M85.3729 10.6304C85.3729 9.938 85.2066 9.70649 84.5722 9.67403L83.4718 9.5745V6.80061H89.5797V9.07901H89.6453C90.481 7.52762 92.0146 6.37219 94.5522 6.37219C96.2542 6.37219 98.0568 6.99967 99.0238 9.14608C99.9929 7.39563 101.66 6.37219 103.963 6.37219C107.201 6.37219 108.969 8.22217 108.969 12.0498V20.6982H109.002L110.603 20.7977V23.537H102.493V20.9297L103.495 20.8302C104.13 20.7306 104.329 20.5662 104.329 19.7743V12.9737C104.329 11.2233 103.961 10.0678 102.093 10.0678C100.524 10.0678 99.4897 11.3877 99.4897 13.0711V20.696L101.091 20.7956V23.5348H92.9815V20.9297L93.9834 20.8302C94.6179 20.7306 94.8191 20.5662 94.8191 19.7743V13.0062C94.8191 11.2903 94.5522 10.0678 92.649 10.0678C91.0476 10.0678 89.9779 11.4548 89.9779 13.1706V20.696L91.5136 20.828V23.5348H83.5024V20.9297L84.57 20.7977C85.2044 20.6982 85.3707 20.5662 85.3707 19.7743V10.6304H85.3729Z" fill="#BAF73C"/>
<path d="M135.899 13.1381V20.6636L138.668 20.7956V23.5348H129.423V20.9297L130.491 20.8302C131.191 20.7306 131.292 20.4991 131.292 19.7397V10.5958C131.292 9.93584 131.09 9.70432 130.524 9.67187L129.388 9.57234V6.80061H135.496V9.34298H135.564C136.098 8.02311 137.533 6.37219 140.305 6.37219C141.272 6.37219 142.475 6.53664 143.376 6.9326V12.8742L139.605 13.1381V10.9593C139.605 10.4313 139.537 10.2669 139.305 10.1674C139.104 10.1003 138.837 10.0678 138.471 10.0678C136.866 10.0678 135.899 11.3899 135.899 13.1381Z" fill="#BAF73C"/>
<path d="M144.761 6.93253C147.163 6.50411 148.467 4.98518 149.167 3.00537H151.737V6.8027H155.876L155.71 10.005H151.735V17.8939C151.735 19.8413 152.435 20.3692 153.772 20.3692C154.673 20.3692 155.474 20.1053 156.008 19.8088L156.775 22.9441C155.841 23.5716 154.238 24 152.503 24C147.296 24 147.029 20.8972 147.029 18.0908V10.0028H144.761V6.93253Z" fill="#BAF73C"/>
<path d="M126.855 20.7977C126.221 20.6982 126.087 20.5013 126.087 19.7418V12.8417C126.087 7.8565 124.418 6.37219 119.778 6.37219C117.275 6.37219 114.604 7.03213 113.303 7.59253V11.7512L116.941 12.0152V10.5612C116.941 10.1327 117.041 9.86877 117.442 9.76923C118.008 9.63725 118.678 9.60479 119.176 9.60479C120.745 9.60479 121.578 10.1674 121.578 12.0476V13.6661C121.01 13.5666 120.01 13.5017 119.176 13.5017C115.171 13.5017 112.368 14.7891 112.368 18.8158C112.368 21.7195 113.703 23.9979 117.409 23.9979C119.277 23.9979 120.881 23.3055 122.049 21.819C122.082 21.819 122.082 21.8514 122.182 21.8514V23.5348H127.756V20.8973L126.855 20.7977ZM117.682 20.9319C116.51 20.9319 115.665 20.3888 115.665 19.0473C115.665 16.7624 117.901 16.1479 121.567 16.2929C121.458 18.7573 120.102 20.9319 117.682 20.9319Z" fill="#BAF73C"/>
<path d="M158.709 2.94702C158.926 2.94702 159.138 3.00111 159.344 3.11146C159.549 3.22181 159.711 3.3776 159.825 3.58316C159.941 3.78871 159.998 4.00075 159.998 4.22362C159.998 4.44432 159.941 4.6542 159.827 4.85759C159.713 5.06098 159.556 5.21893 159.35 5.32928C159.147 5.44179 158.932 5.49805 158.709 5.49805C158.486 5.49805 158.272 5.44179 158.068 5.32928C157.865 5.21676 157.705 5.05881 157.591 4.85759C157.478 4.6542 157.421 4.44432 157.421 4.22362C157.421 4.00292 157.48 3.78871 157.594 3.58316C157.71 3.3776 157.871 3.22181 158.077 3.11146C158.283 3.00328 158.495 2.94702 158.709 2.94702ZM158.709 3.15907C158.528 3.15907 158.353 3.2045 158.18 3.29754C158.009 3.39058 157.874 3.52041 157.777 3.69134C157.681 3.86228 157.633 4.0397 157.633 4.22362C157.633 4.40753 157.681 4.58279 157.775 4.75156C157.871 4.92034 158.003 5.05232 158.173 5.14536C158.344 5.2384 158.523 5.286 158.707 5.286C158.893 5.286 159.072 5.2384 159.243 5.14536C159.414 5.05232 159.547 4.92034 159.641 4.75156C159.735 4.58279 159.783 4.40753 159.783 4.22362C159.783 4.0397 159.735 3.86228 159.639 3.69134C159.543 3.52041 159.409 3.38842 159.237 3.29754C159.066 3.2045 158.891 3.15907 158.709 3.15907ZM158.145 4.92899V3.55719H158.622C158.786 3.55719 158.904 3.57017 158.976 3.59397C159.048 3.61994 159.107 3.66321 159.151 3.72596C159.195 3.78871 159.217 3.85578 159.217 3.92719C159.217 4.02672 159.182 4.11543 159.107 4.189C159.035 4.26256 158.939 4.30584 158.819 4.31449C158.867 4.33397 158.906 4.35993 158.937 4.38806C158.994 4.44215 159.062 4.53303 159.142 4.66069L159.311 4.92899H159.037L158.915 4.71262C158.819 4.54168 158.74 4.43566 158.681 4.39239C158.639 4.35993 158.58 4.34479 158.501 4.34479H158.37V4.92899H158.145ZM158.368 4.15654H158.639C158.768 4.15654 158.858 4.13707 158.904 4.09812C158.952 4.05917 158.974 4.00941 158.974 3.94666C158.974 3.90555 158.963 3.87093 158.939 3.83847C158.917 3.80602 158.884 3.78222 158.845 3.76707C158.806 3.75193 158.729 3.74327 158.62 3.74327H158.366V4.15654H158.368Z" fill="white"/>
</svg>
